<?xml version="1.0" encoding="UTF-8" ?>
<svg version="1.1" width="121" height="108" xmlns="http://www.w3.org/2000/svg" shape-rendering="crispEdges">
<rect x="0" y="0" width="121" height="74" fill="#201B1B" />
<rect x="0" y="74" width="1" height="5" fill="#141111" />
<rect x="1" y="74" width="119" height="1" fill="#201B1B" />
<rect x="120" y="74" width="1" height="5" fill="#141111" />
<rect x="1" y="75" width="119" height="3" fill="#141111" />
<rect x="1" y="78" width="3" height="1" fill="#141111" />
<rect x="4" y="78" width="8" height="1" fill="#080707" />
<rect x="12" y="78" width="8" height="1" fill="#141111" />
<rect x="20" y="78" width="13" height="1" fill="#080707" />
<rect x="33" y="78" width="5" height="2" fill="#141111" />
<rect x="38" y="78" width="8" height="1" fill="#080707" />
<rect x="46" y="78" width="8" height="2" fill="#141111" />
<rect x="54" y="78" width="13" height="1" fill="#080707" />
<rect x="67" y="78" width="8" height="2" fill="#141111" />
<rect x="75" y="78" width="8" height="1" fill="#080707" />
<rect x="83" y="78" width="5" height="2" fill="#141111" />
<rect x="88" y="78" width="13" height="1" fill="#080707" />
<rect x="101" y="78" width="8" height="1" fill="#141111" />
<rect x="109" y="78" width="8" height="1" fill="#080707" />
<rect x="117" y="78" width="3" height="1" fill="#141111" />
<rect x="0" y="79" width="4" height="4" fill="#100E0E" />
<rect x="4" y="79" width="6" height="1" fill="#080707" />
<rect x="10" y="79" width="11" height="1" fill="#100E0E" />
<rect x="21" y="79" width="1" height="1" fill="#141111" />
<rect x="22" y="79" width="9" height="1" fill="#080707" />
<rect x="31" y="79" width="2" height="1" fill="#141111" />
<rect x="38" y="79" width="6" height="1" fill="#080707" />
<rect x="44" y="79" width="2" height="1" fill="#141111" />
<rect x="54" y="79" width="2" height="1" fill="#141111" />
<rect x="56" y="79" width="9" height="1" fill="#080707" />
<rect x="65" y="79" width="2" height="1" fill="#141111" />
<rect x="75" y="79" width="2" height="1" fill="#141111" />
<rect x="77" y="79" width="6" height="1" fill="#080707" />
<rect x="88" y="79" width="2" height="1" fill="#141111" />
<rect x="90" y="79" width="9" height="1" fill="#080707" />
<rect x="99" y="79" width="1" height="1" fill="#141111" />
<rect x="100" y="79" width="11" height="1" fill="#100E0E" />
<rect x="111" y="79" width="6" height="1" fill="#080707" />
<rect x="117" y="79" width="4" height="4" fill="#100E0E" />
<rect x="4" y="80" width="4" height="1" fill="#080707" />
<rect x="8" y="80" width="5" height="1" fill="#100E0E" />
<rect x="13" y="80" width="2" height="12" fill="#080707" />
<rect x="15" y="80" width="2" height="4" fill="#100E0E" />
<rect x="17" y="80" width="2" height="10" fill="#080707" />
<rect x="19" y="80" width="5" height="1" fill="#100E0E" />
<rect x="24" y="80" width="5" height="1" fill="#080707" />
<rect x="29" y="80" width="5" height="1" fill="#100E0E" />
<rect x="34" y="80" width="2" height="6" fill="#080707" />
<rect x="36" y="80" width="2" height="4" fill="#100E0E" />
<rect x="38" y="80" width="4" height="1" fill="#080707" />
<rect x="42" y="80" width="5" height="1" fill="#100E0E" />
<rect x="47" y="80" width="2" height="5" fill="#080707" />
<rect x="49" y="80" width="2" height="4" fill="#100E0E" />
<rect x="51" y="80" width="2" height="5" fill="#080707" />
<rect x="53" y="80" width="5" height="1" fill="#100E0E" />
<rect x="58" y="80" width="5" height="1" fill="#080707" />
<rect x="63" y="80" width="5" height="1" fill="#100E0E" />
<rect x="68" y="80" width="2" height="5" fill="#080707" />
<rect x="70" y="80" width="2" height="4" fill="#100E0E" />
<rect x="72" y="80" width="2" height="5" fill="#080707" />
<rect x="74" y="80" width="5" height="1" fill="#100E0E" />
<rect x="79" y="80" width="4" height="1" fill="#080707" />
<rect x="83" y="80" width="2" height="4" fill="#100E0E" />
<rect x="85" y="80" width="2" height="6" fill="#080707" />
<rect x="87" y="80" width="5" height="1" fill="#100E0E" />
<rect x="92" y="80" width="5" height="1" fill="#080707" />
<rect x="97" y="80" width="5" height="1" fill="#100E0E" />
<rect x="102" y="80" width="2" height="10" fill="#080707" />
<rect x="104" y="80" width="2" height="4" fill="#100E0E" />
<rect x="106" y="80" width="2" height="12" fill="#080707" />
<rect x="108" y="80" width="5" height="1" fill="#100E0E" />
<rect x="113" y="80" width="4" height="1" fill="#080707" />
<rect x="4" y="81" width="2" height="1" fill="#080707" />
<rect x="6" y="81" width="5" height="1" fill="#100E0E" />
<rect x="11" y="81" width="2" height="12" fill="#080707" />
<rect x="19" y="81" width="2" height="9" fill="#080707" />
<rect x="21" y="81" width="5" height="1" fill="#100E0E" />
<rect x="26" y="81" width="1" height="1" fill="#080707" />
<rect x="27" y="81" width="5" height="1" fill="#100E0E" />
<rect x="32" y="81" width="2" height="6" fill="#080707" />
<rect x="38" y="81" width="2" height="1" fill="#080707" />
<rect x="40" y="81" width="5" height="1" fill="#100E0E" />
<rect x="45" y="81" width="2" height="4" fill="#080707" />
<rect x="53" y="81" width="2" height="4" fill="#080707" />
<rect x="55" y="81" width="5" height="1" fill="#100E0E" />
<rect x="60" y="81" width="1" height="1" fill="#080707" />
<rect x="61" y="81" width="5" height="1" fill="#100E0E" />
<rect x="66" y="81" width="2" height="4" fill="#080707" />
<rect x="74" y="81" width="2" height="4" fill="#080707" />
<rect x="76" y="81" width="5" height="1" fill="#100E0E" />
<rect x="81" y="81" width="2" height="1" fill="#080707" />
<rect x="87" y="81" width="2" height="6" fill="#080707" />
<rect x="89" y="81" width="5" height="1" fill="#100E0E" />
<rect x="94" y="81" width="1" height="1" fill="#080707" />
<rect x="95" y="81" width="5" height="1" fill="#100E0E" />
<rect x="100" y="81" width="2" height="9" fill="#080707" />
<rect x="108" y="81" width="2" height="12" fill="#080707" />
<rect x="110" y="81" width="5" height="1" fill="#100E0E" />
<rect x="115" y="81" width="2" height="1" fill="#080707" />
<rect x="4" y="82" width="5" height="1" fill="#100E0E" />
<rect x="9" y="82" width="2" height="12" fill="#080707" />
<rect x="21" y="82" width="2" height="7" fill="#080707" />
<rect x="23" y="82" width="7" height="1" fill="#100E0E" />
<rect x="30" y="82" width="2" height="5" fill="#080707" />
<rect x="38" y="82" width="5" height="1" fill="#100E0E" />
<rect x="43" y="82" width="2" height="3" fill="#080707" />
<rect x="55" y="82" width="2" height="3" fill="#080707" />
<rect x="57" y="82" width="7" height="1" fill="#100E0E" />
<rect x="64" y="82" width="2" height="3" fill="#080707" />
<rect x="76" y="82" width="2" height="3" fill="#080707" />
<rect x="78" y="82" width="5" height="1" fill="#100E0E" />
<rect x="89" y="82" width="2" height="5" fill="#080707" />
<rect x="91" y="82" width="7" height="1" fill="#100E0E" />
<rect x="98" y="82" width="2" height="7" fill="#080707" />
<rect x="110" y="82" width="2" height="12" fill="#080707" />
<rect x="112" y="82" width="5" height="1" fill="#100E0E" />
<rect x="0" y="83" width="1" height="19" fill="#080707" />
<rect x="1" y="83" width="6" height="1" fill="#100E0E" />
<rect x="7" y="83" width="2" height="12" fill="#080707" />
<rect x="23" y="83" width="2" height="5" fill="#080707" />
<rect x="25" y="83" width="3" height="1" fill="#100E0E" />
<rect x="28" y="83" width="2" height="4" fill="#080707" />
<rect x="38" y="83" width="3" height="1" fill="#100E0E" />
<rect x="41" y="83" width="2" height="2" fill="#080707" />
<rect x="57" y="83" width="2" height="2" fill="#080707" />
<rect x="59" y="83" width="3" height="1" fill="#100E0E" />
<rect x="62" y="83" width="2" height="2" fill="#080707" />
<rect x="78" y="83" width="2" height="2" fill="#080707" />
<rect x="80" y="83" width="3" height="1" fill="#100E0E" />
<rect x="91" y="83" width="2" height="4" fill="#080707" />
<rect x="93" y="83" width="3" height="1" fill="#100E0E" />
<rect x="96" y="83" width="2" height="5" fill="#080707" />
<rect x="112" y="83" width="2" height="12" fill="#080707" />
<rect x="114" y="83" width="6" height="1" fill="#100E0E" />
<rect x="120" y="83" width="1" height="19" fill="#080707" />
<rect x="1" y="84" width="6" height="12" fill="#080707" />
<rect x="15" y="84" width="2" height="7" fill="#080707" />
<rect x="25" y="84" width="3" height="4" fill="#080707" />
<rect x="36" y="84" width="5" height="1" fill="#080707" />
<rect x="49" y="84" width="2" height="1" fill="#080707" />
<rect x="59" y="84" width="3" height="1" fill="#080707" />
<rect x="70" y="84" width="2" height="1" fill="#080707" />
<rect x="80" y="84" width="5" height="1" fill="#080707" />
<rect x="93" y="84" width="3" height="4" fill="#080707" />
<rect x="104" y="84" width="2" height="7" fill="#080707" />
<rect x="114" y="84" width="6" height="12" fill="#080707" />
<rect x="36" y="85" width="3" height="1" fill="#080707" />
<rect x="39" y="85" width="43" height="23" fill="#0C0A0A" />
<rect x="82" y="85" width="3" height="1" fill="#080707" />
<rect x="34" y="86" width="5" height="22" fill="#0C0A0A" />
<rect x="82" y="86" width="5" height="22" fill="#0C0A0A" />
<rect x="28" y="87" width="6" height="21" fill="#0C0A0A" />
<rect x="87" y="87" width="6" height="21" fill="#0C0A0A" />
<rect x="23" y="88" width="1" height="1" fill="#080707" />
<rect x="24" y="88" width="4" height="20" fill="#0C0A0A" />
<rect x="93" y="88" width="4" height="20" fill="#0C0A0A" />
<rect x="97" y="88" width="1" height="1" fill="#080707" />
<rect x="21" y="89" width="3" height="19" fill="#0C0A0A" />
<rect x="97" y="89" width="3" height="19" fill="#0C0A0A" />
<rect x="17" y="90" width="1" height="1" fill="#080707" />
<rect x="18" y="90" width="3" height="18" fill="#0C0A0A" />
<rect x="100" y="90" width="3" height="18" fill="#0C0A0A" />
<rect x="103" y="90" width="1" height="1" fill="#080707" />
<rect x="15" y="91" width="3" height="17" fill="#0C0A0A" />
<rect x="103" y="91" width="3" height="17" fill="#0C0A0A" />
<rect x="13" y="92" width="2" height="16" fill="#0C0A0A" />
<rect x="106" y="92" width="2" height="16" fill="#0C0A0A" />
<rect x="11" y="93" width="2" height="15" fill="#0C0A0A" />
<rect x="108" y="93" width="2" height="15" fill="#0C0A0A" />
<rect x="9" y="94" width="2" height="14" fill="#0C0A0A" />
<rect x="110" y="94" width="2" height="14" fill="#0C0A0A" />
<rect x="7" y="95" width="2" height="13" fill="#0C0A0A" />
<rect x="112" y="95" width="2" height="13" fill="#0C0A0A" />
<rect x="1" y="96" width="5" height="1" fill="#080707" />
<rect x="6" y="96" width="1" height="12" fill="#0C0A0A" />
<rect x="114" y="96" width="1" height="12" fill="#0C0A0A" />
<rect x="115" y="96" width="5" height="1" fill="#080707" />
<rect x="1" y="97" width="4" height="1" fill="#080707" />
<rect x="5" y="97" width="1" height="11" fill="#0C0A0A" />
<rect x="115" y="97" width="1" height="11" fill="#0C0A0A" />
<rect x="116" y="97" width="4" height="1" fill="#080707" />
<rect x="1" y="98" width="3" height="1" fill="#080707" />
<rect x="4" y="98" width="1" height="10" fill="#0C0A0A" />
<rect x="116" y="98" width="1" height="10" fill="#0C0A0A" />
<rect x="117" y="98" width="3" height="1" fill="#080707" />
<rect x="1" y="99" width="2" height="1" fill="#080707" />
<rect x="3" y="99" width="1" height="9" fill="#0C0A0A" />
<rect x="117" y="99" width="1" height="9" fill="#0C0A0A" />
<rect x="118" y="99" width="2" height="1" fill="#080707" />
<rect x="1" y="100" width="1" height="1" fill="#080707" />
<rect x="2" y="100" width="1" height="8" fill="#0C0A0A" />
<rect x="118" y="100" width="1" height="8" fill="#0C0A0A" />
<rect x="119" y="100" width="1" height="1" fill="#080707" />
<rect x="1" y="101" width="1" height="7" fill="#0C0A0A" />
<rect x="119" y="101" width="1" height="7" fill="#0C0A0A" />
<rect x="0" y="102" width="1" height="6" fill="#0C0A0A" />
<rect x="120" y="102" width="1" height="6" fill="#0C0A0A" />
</svg>