<?xml version="1.0" encoding="UTF-8" ?>
<svg version="1.1" width="20" height="20" xmlns="http://www.w3.org/2000/svg" shape-rendering="crispEdges">
<rect x="6" y="0" width="8" height="2" fill="#131314" />
<rect x="5" y="1" width="1" height="3" fill="#131314" />
<rect x="14" y="1" width="1" height="3" fill="#131314" />
<rect x="6" y="2" width="5" height="2" fill="#131314" />
<rect x="11" y="2" width="1" height="1" fill="#0B0B0C" />
<rect x="12" y="2" width="2" height="1" fill="#131314" />
<rect x="11" y="3" width="2" height="3" fill="#CEB6AC" />
<rect x="13" y="3" width="1" height="2" fill="#131314" />
<rect x="5" y="4" width="1" height="3" fill="#0B0B0C" />
<rect x="6" y="4" width="4" height="1" fill="#131314" />
<rect x="10" y="4" width="1" height="5" fill="#CEB6AC" />
<rect x="14" y="4" width="1" height="3" fill="#0B0B0C" />
<rect x="6" y="5" width="1" height="1" fill="#0B0B0C" />
<rect x="7" y="5" width="3" height="1" fill="#CEB6AC" />
<rect x="13" y="5" width="1" height="1" fill="#0B0B0C" />
<rect x="6" y="6" width="1" height="2" fill="#CEB6AC" />
<rect x="7" y="6" width="1" height="1" fill="#131314" />
<rect x="8" y="6" width="2" height="3" fill="#CEB6AC" />
<rect x="11" y="6" width="1" height="3" fill="#CEB6AC" />
<rect x="12" y="6" width="1" height="1" fill="#131314" />
<rect x="13" y="6" width="1" height="2" fill="#CEB6AC" />
<rect x="7" y="7" width="1" height="2" fill="#CEB6AC" />
<rect x="12" y="7" width="1" height="2" fill="#CEB6AC" />
<rect x="15" y="7" width="4" height="1" fill="#AA754C" />
<rect x="5" y="8" width="1" height="5" fill="#9E2A2A" />
<rect x="6" y="8" width="1" height="1" fill="#7D1B1B" />
<rect x="13" y="8" width="1" height="1" fill="#7D1B1B" />
<rect x="14" y="8" width="1" height="1" fill="#9E2A2A" />
<rect x="15" y="8" width="1" height="1" fill="#2D1E1C" />
<rect x="16" y="8" width="2" height="1" fill="#AA754C" />
<rect x="6" y="9" width="1" height="3" fill="#9E2A2A" />
<rect x="7" y="9" width="6" height="1" fill="#7D1B1B" />
<rect x="13" y="9" width="2" height="1" fill="#2D1E1C" />
<rect x="15" y="9" width="1" height="2" fill="#7D1B1B" />
<rect x="16" y="9" width="1" height="1" fill="#9E2A2A" />
<rect x="7" y="10" width="2" height="1" fill="#9E2A2A" />
<rect x="9" y="10" width="1" height="1" fill="#252579" />
<rect x="10" y="10" width="1" height="1" fill="#9E2A2A" />
<rect x="11" y="10" width="2" height="1" fill="#2D1E1C" />
<rect x="13" y="10" width="2" height="1" fill="#412D2A" />
<rect x="16" y="10" width="1" height="1" fill="#7D1B1B" />
<rect x="7" y="11" width="1" height="1" fill="#252579" />
<rect x="8" y="11" width="2" height="1" fill="#DAE2FB" />
<rect x="10" y="11" width="1" height="1" fill="#2D1E1C" />
<rect x="11" y="11" width="2" height="1" fill="#412D2A" />
<rect x="13" y="11" width="2" height="1" fill="#9E2A2A" />
<rect x="6" y="12" width="1" height="2" fill="#252579" />
<rect x="7" y="12" width="1" height="2" fill="#7D1B1B" />
<rect x="8" y="12" width="1" height="1" fill="#9E2A2A" />
<rect x="9" y="12" width="3" height="1" fill="#DAE2FB" />
<rect x="12" y="12" width="1" height="1" fill="#252579" />
<rect x="13" y="12" width="1" height="1" fill="#151565" />
<rect x="14" y="12" width="1" height="1" fill="#9E2A2A" />
<rect x="5" y="13" width="1" height="1" fill="#131314" />
<rect x="8" y="13" width="1" height="1" fill="#7D1B1B" />
<rect x="9" y="13" width="2" height="1" fill="#DAE2FB" />
<rect x="11" y="13" width="1" height="1" fill="#151565" />
<rect x="12" y="13" width="3" height="1" fill="#131314" />
<rect x="5" y="14" width="1" height="1" fill="#0B0B0C" />
<rect x="6" y="14" width="5" height="1" fill="#151565" />
<rect x="11" y="14" width="4" height="1" fill="#0B0B0C" />
<rect x="7" y="15" width="1" height="1" fill="#151565" />
<rect x="8" y="15" width="1" height="1" fill="#DAE2FB" />
<rect x="9" y="15" width="1" height="1" fill="#151565" />
<rect x="11" y="15" width="2" height="3" fill="#0B0B0C" />
<rect x="7" y="16" width="2" height="2" fill="#0B0B0C" />
<rect x="7" y="18" width="2" height="2" fill="#131314" />
<rect x="11" y="18" width="2" height="2" fill="#131314" />
</svg>