<?xml version="1.0" encoding="UTF-8" ?>
<svg version="1.1" width="20" height="20" xmlns="http://www.w3.org/2000/svg" shape-rendering="crispEdges">
<rect x="6" y="0" width="8" height="3" fill="#69533D" />
<rect x="5" y="1" width="1" height="3" fill="#69533D" />
<rect x="14" y="1" width="1" height="3" fill="#69533D" />
<rect x="6" y="3" width="1" height="2" fill="#69533D" />
<rect x="7" y="3" width="1" height="1" fill="#49392A" />
<rect x="8" y="3" width="4" height="3" fill="#D7CBBF" />
<rect x="12" y="3" width="1" height="1" fill="#49392A" />
<rect x="13" y="3" width="1" height="2" fill="#69533D" />
<rect x="5" y="4" width="1" height="3" fill="#49392A" />
<rect x="7" y="4" width="1" height="2" fill="#D7CBBF" />
<rect x="12" y="4" width="1" height="2" fill="#D7CBBF" />
<rect x="14" y="4" width="1" height="3" fill="#49392A" />
<rect x="6" y="5" width="1" height="1" fill="#49392A" />
<rect x="13" y="5" width="1" height="1" fill="#49392A" />
<rect x="6" y="6" width="1" height="1" fill="#D7CBBF" />
<rect x="7" y="6" width="1" height="1" fill="#3F552A" />
<rect x="8" y="6" width="1" height="1" fill="#D7CBBF" />
<rect x="9" y="6" width="2" height="1" fill="#69533D" />
<rect x="11" y="6" width="1" height="1" fill="#D7CBBF" />
<rect x="12" y="6" width="1" height="1" fill="#3F552A" />
<rect x="13" y="6" width="1" height="1" fill="#D7CBBF" />
<rect x="6" y="7" width="1" height="1" fill="#49392A" />
<rect x="7" y="7" width="1" height="1" fill="#D7CBBF" />
<rect x="8" y="7" width="1" height="2" fill="#69533D" />
<rect x="9" y="7" width="2" height="1" fill="#D7CBBF" />
<rect x="11" y="7" width="1" height="2" fill="#69533D" />
<rect x="12" y="7" width="1" height="1" fill="#D7CBBF" />
<rect x="13" y="7" width="1" height="1" fill="#49392A" />
<rect x="5" y="8" width="1" height="2" fill="#3D5892" />
<rect x="6" y="8" width="1" height="1" fill="#233761" />
<rect x="7" y="8" width="1" height="1" fill="#49392A" />
<rect x="9" y="8" width="2" height="1" fill="#69533D" />
<rect x="12" y="8" width="1" height="1" fill="#49392A" />
<rect x="13" y="8" width="1" height="1" fill="#233761" />
<rect x="14" y="8" width="1" height="2" fill="#3D5892" />
<rect x="6" y="9" width="1" height="1" fill="#3D5892" />
<rect x="7" y="9" width="6" height="1" fill="#233761" />
<rect x="13" y="9" width="1" height="1" fill="#3D5892" />
<rect x="0" y="10" width="1" height="4" fill="#2A2A2D" />
<rect x="1" y="10" width="1" height="1" fill="#DAE2FB" />
<rect x="2" y="10" width="1" height="3" fill="#ABB5D7" />
<rect x="3" y="10" width="1" height="2" fill="#233761" />
<rect x="4" y="10" width="1" height="1" fill="#3D5892" />
<rect x="5" y="10" width="1" height="3" fill="#DAE2FB" />
<rect x="6" y="10" width="1" height="3" fill="#ABB5D7" />
<rect x="7" y="10" width="1" height="1" fill="#DAE2FB" />
<rect x="8" y="10" width="1" height="3" fill="#ABB5D7" />
<rect x="9" y="10" width="1" height="1" fill="#DAE2FB" />
<rect x="10" y="10" width="1" height="3" fill="#ABB5D7" />
<rect x="11" y="10" width="1" height="1" fill="#DAE2FB" />
<rect x="12" y="10" width="1" height="3" fill="#ABB5D7" />
<rect x="13" y="10" width="1" height="3" fill="#DAE2FB" />
<rect x="14" y="10" width="1" height="2" fill="#233761" />
<rect x="15" y="10" width="1" height="1" fill="#3D5892" />
<rect x="16" y="10" width="1" height="3" fill="#ABB5D7" />
<rect x="17" y="10" width="1" height="1" fill="#DAE2FB" />
<rect x="18" y="10" width="1" height="3" fill="#ABB5D7" />
<rect x="19" y="10" width="1" height="4" fill="#2A2A2D" />
<rect x="1" y="11" width="1" height="2" fill="#131314" />
<rect x="4" y="11" width="1" height="1" fill="#233761" />
<rect x="7" y="11" width="1" height="2" fill="#131314" />
<rect x="9" y="11" width="1" height="2" fill="#131314" />
<rect x="11" y="11" width="1" height="2" fill="#131314" />
<rect x="15" y="11" width="1" height="1" fill="#233761" />
<rect x="17" y="11" width="1" height="2" fill="#131314" />
<rect x="3" y="12" width="1" height="1" fill="#131314" />
<rect x="4" y="12" width="1" height="1" fill="#ABB5D7" />
<rect x="14" y="12" width="1" height="1" fill="#ABB5D7" />
<rect x="15" y="12" width="1" height="1" fill="#131314" />
<rect x="1" y="13" width="18" height="2" fill="#2A2A2D" />
<rect x="0" y="14" width="1" height="3" fill="#171718" />
<rect x="19" y="14" width="1" height="3" fill="#171718" />
<rect x="1" y="15" width="18" height="2" fill="#171718" />
<rect x="0" y="17" width="20" height="1" fill="#0B0B0C" />
<rect x="0" y="18" width="1" height="1" fill="#131314" />
<rect x="2" y="18" width="1" height="1" fill="#0B0B0C" />
<rect x="17" y="18" width="1" height="1" fill="#0B0B0C" />
<rect x="19" y="18" width="1" height="1" fill="#131314" />
<rect x="2" y="19" width="1" height="1" fill="#131314" />
<rect x="17" y="19" width="1" height="1" fill="#131314" />
</svg>